The Longest Way - One Year Journey On Foot Through China WR Xvid [Dodecahedron]
 
One of the most watched videos of 2009, in HQ.
 
---
 
   General
 
      Format : AVI
      Format/Info : Audio Video Interleave
      File size : 66.4 MiB
      Duration : 5mn 18s
      Overall bit rate : 1 751 Kbps
 
   Video
 
      Format : MPEG-4 Visual
      Format profile : Streaming Video@L1
      Format settings, BVOP : Yes
      Format settings, QPel : No
      Format settings, GMC : No warppoints
      Format settings, Matrix : Default
      Codec ID : XVID
      Codec ID/Hint : XviD
      Duration : 5mn 18s
      Bit rate : 1 609 Kbps
      Width : 640 pixels
      Height : 368 pixels
      Display aspect ratio : 16/9
      Frame rate : 30.000 fps
      Resolution : 24 bits
      Colorimetry : 4:2:0
      Scan type : Progressive
      Bits/(Pixel*Frame) : 0.228
      Stream size : 61.0 MiB (92%)
      Writing library : XviD 50
 
   Audio
 
      Format : MPEG Audio
      Format version : Version 1
      Format profile : Layer 3
      Codec ID : 55
      Codec ID/Hint : MP3
      Bit rate mode : Constant
      Bit rate : 128 Kbps
      Channel(s) : 2 channels
      Sampling rate : 44.1 KHz
      Resolution : 16 bits
      Stream size : 4.85 MiB (7%)
      Alignment : Split accross interleaves
      Interleave, duration : 26 ms (0.78 video frame)